<svg xmlns="http://www.w3.org/2000/svg" xmlns:xlink="http://www.w3.org/1999/xlink" version="1.1" x="0px" y="0px" viewBox="-5.0 -10.0 110.0 135.0" enable-background="new 0 0 100 100" xml:space="preserve"><path d="M50,27.504c-12.403,0-22.495,10.091-22.495,22.495c0,12.403,10.092,22.495,22.495,22.495  c12.402,0,22.495-10.092,22.495-22.495C72.495,37.595,62.402,27.504,50,27.504z M50,67.176c-9.47,0-17.174-7.707-17.174-17.177  S40.53,32.825,50,32.825s17.174,7.704,17.174,17.174S59.47,67.176,50,67.176z"/><path d="M50,14.584c-19.528,0-35.415,15.887-35.415,35.415S30.472,85.414,50,85.414c19.527,0,35.415-15.887,35.415-35.415  S69.527,14.584,50,14.584z M50,80.096c-16.595,0-30.094-13.502-30.094-30.097c0-16.594,13.5-30.096,30.094-30.096  s30.095,13.502,30.095,30.096C80.095,66.594,66.595,80.096,50,80.096z"/><path d="M50,2.145c-26.387,0-47.854,21.468-47.854,47.854c0,26.39,21.467,47.856,47.854,47.856  c26.389,0,47.854-21.468,47.854-47.856C97.854,23.612,76.389,2.145,50,2.145z M50,92.533c-23.454,0-42.535-19.08-42.535-42.534  C7.465,26.546,26.546,7.466,50,7.466c23.453,0,42.533,19.08,42.533,42.533C92.533,73.453,73.453,92.533,50,92.533z"/></svg>