<svg xmlns="http://www.w3.org/2000/svg" xmlns:xlink="http://www.w3.org/1999/xlink" version="1.1" x="0px" y="0px" viewBox="-5.0 -10.0 110.0 135.0" enable-background="new 0 0 100 100" xml:space="preserve"><path d="M69.352,3.087c-7.922,0-14.951,7.423-19.351,18.887C45.603,10.508,38.573,3.082,30.649,3.082  C17.325,3.082,6.521,24.088,6.521,50c0,25.908,10.804,46.916,24.128,46.916c7.922,0,14.952-7.424,19.351-18.888  c4.399,11.465,11.429,18.89,19.352,18.89c13.323,0,24.127-21.004,24.127-46.913C93.479,24.094,82.675,3.087,69.352,3.087z   M38.977,81.996c-0.454,0.893-0.991,1.73-1.612,2.51c-1.415,1.889-2.966,3.191-4.605,3.789c-0.668,0.242-1.347,0.369-2.039,0.369  c-5.969,0-11.09-9.311-13.292-22.592c-0.74-4.469-1.151-9.385-1.151-14.549c0-5.201,0.418-10.153,1.168-14.647  c2.211-13.228,7.321-22.491,13.275-22.491c1.019,0,2.01,0.271,2.97,0.787c0.803,0.434,1.582,1.034,2.33,1.794  c0.12,0.113,0.239,0.229,0.354,0.347c1.286,1.304,2.283,2.818,3.008,4.495c3.391,7.834,0.8,19.253-6.665,29.661  C40.462,62.27,42.96,74.154,38.977,81.996z M69.208,88.664c-0.692,0-1.375-0.127-2.039-0.369c-1.642-0.598-3.192-1.9-4.606-3.789  c-0.623-0.779-1.16-1.617-1.611-2.51c-3.983-7.842-1.485-19.727,6.26-30.527c-7.466-10.408-10.055-21.827-6.666-29.661  c0.727-1.677,1.725-3.191,3.007-4.495c0.117-0.118,0.237-0.233,0.356-0.347c0.748-0.76,1.527-1.36,2.33-1.794  c0.957-0.516,1.951-0.787,2.971-0.787c5.951,0,11.062,9.264,13.273,22.491c0.752,4.494,1.166,9.446,1.166,14.647  c0,5.164-0.408,10.08-1.149,14.549C80.298,79.354,75.176,88.664,69.208,88.664z"/>ß</svg>