<svg xmlns="http://www.w3.org/2000/svg" xmlns:xlink="http://www.w3.org/1999/xlink" version="1.1" x="0px" y="0px" viewBox="-5.0 -10.0 110.0 135.0" enable-background="new 0 0 100 100" xml:space="preserve"><path d="M86.211,50.5c-0.891-0.334-1.811-0.531-2.734-0.595c0.924-0.063,1.844-0.26,2.734-0.593c2.42-0.905,4.342-2.699,5.41-5.049  c1.418-3.114,1.538-6.593,0.339-9.797c-1.199-3.206-3.528-5.494-6.801-6.494c-6.643-2.031-14.899,2.886-21.714,8.574  c5.651-6.794,10.509-15.001,8.49-21.61c-1.002-3.271-3.291-5.602-6.494-6.801c-3.205-1.199-6.685-1.079-9.799,0.339  c-2.349,1.07-4.144,2.992-5.049,5.41c-0.333,0.892-0.53,1.812-0.595,2.736c-0.063-0.924-0.26-1.844-0.594-2.736  c-0.905-2.418-2.698-4.339-5.05-5.41c-3.112-1.417-6.592-1.538-9.797-0.339c-3.203,1.199-5.493,3.53-6.493,6.801  c-2.02,6.608,2.836,14.813,8.486,21.607c-6.814-5.687-15.069-10.603-21.71-8.573c-3.272,1-5.602,3.288-6.801,6.494  c-1.199,3.204-1.079,6.683,0.338,9.797c1.07,2.351,2.992,4.145,5.41,5.049c0.892,0.333,1.812,0.53,2.736,0.593  c-0.925,0.063-1.845,0.261-2.736,0.595c-2.418,0.906-4.34,2.698-5.41,5.049c-1.417,3.112-1.537,6.593-0.338,9.798  c1.199,3.202,3.528,5.492,6.801,6.493c6.822,2.085,15.347-3.158,22.263-9.038c-5.881,6.916-11.124,15.441-9.039,22.264  c1,3.271,3.29,5.601,6.493,6.8c3.205,1.198,6.685,1.079,9.797-0.339c2.352-1.07,4.145-2.99,5.05-5.409  c0.334-0.892,0.53-1.812,0.594-2.735c0.064,0.923,0.262,1.846,0.595,2.735c0.905,2.419,2.7,4.339,5.049,5.409  c3.114,1.418,6.594,1.537,9.799,0.339c3.203-1.199,5.492-3.528,6.494-6.8c2.084-6.822-3.159-15.347-9.04-22.263  c6.917,5.88,15.441,11.123,22.264,9.038c3.272-1.001,5.602-3.291,6.801-6.492c1.199-3.207,1.079-6.687-0.339-9.799  C90.553,53.197,88.631,51.405,86.211,50.5z M48.446,51.435c0.007,0.008,0.013,0.018,0.021,0.025  c-0.056,0.049-0.104,0.089-0.163,0.14C48.355,51.54,48.397,51.491,48.446,51.435z M51.446,51.31  c0.083,0.097,0.158,0.186,0.249,0.291c-0.104-0.089-0.191-0.163-0.286-0.245C51.422,51.341,51.435,51.325,51.446,51.31z   M30.111,15.867c0.814-2.701,2.593-4.638,5.235-5.627c2.643-0.989,5.512-0.89,8.078,0.279c1.805,0.822,3.037,2.356,3.876,4.153  c0.193,0.415,0.475,1.271,0.783,2.298c-0.364-0.17-0.766-0.271-1.194-0.271c-1.569,0-2.84,1.271-2.84,2.84s1.271,2.84,2.84,2.84  c0.167,0,0.328-0.021,0.486-0.049c-0.312,0.486-0.499,1.062-0.499,1.684c0,1.726,1.399,3.125,3.125,3.125  c1.727,0,3.125-1.399,3.125-3.125c0-0.621-0.187-1.196-0.498-1.682c0.153,0.026,0.31,0.047,0.471,0.047  c1.568,0,2.84-1.271,2.84-2.84s-1.271-2.84-2.84-2.84c-0.412,0-0.802,0.092-1.155,0.25c0.301-1.008,0.573-1.851,0.756-2.276  c0.78-1.821,2.069-3.331,3.875-4.153c2.567-1.169,5.436-1.268,8.079-0.279c2.642,0.989,4.421,2.926,5.234,5.627  c3.745,12.409-11.83,26.996-19.888,31.381C41.943,42.863,26.368,28.276,30.111,15.867z M15.771,69.794  c-2.7-0.815-4.639-2.594-5.628-5.235c-0.988-2.644-0.889-5.512,0.28-8.078c0.821-1.805,2.355-3.037,4.152-3.875  c0.415-0.193,1.271-0.476,2.297-0.783c-0.169,0.363-0.271,0.766-0.271,1.193c0,1.568,1.271,2.84,2.84,2.84s2.84-1.271,2.84-2.84  c0-0.166-0.021-0.326-0.049-0.484c0.487,0.313,1.063,0.5,1.686,0.5c1.727,0,3.126-1.4,3.126-3.126c0-1.727-1.399-3.126-3.126-3.126  c-0.622,0-1.198,0.187-1.685,0.5c0.026-0.155,0.048-0.311,0.048-0.473c0-1.569-1.272-2.84-2.84-2.84s-2.84,1.271-2.84,2.84  c0,0.413,0.092,0.802,0.25,1.156c-1.008-0.301-1.851-0.573-2.276-0.756c-1.822-0.78-3.331-2.071-4.152-3.875  c-1.169-2.568-1.269-5.437-0.28-8.079c0.989-2.643,2.928-4.421,5.628-5.236c12.41-3.743,26.996,11.832,31.381,19.888  C42.766,57.962,28.18,73.535,15.771,69.794z M69.889,84.135c-0.813,2.698-2.594,4.637-5.234,5.626  c-2.645,0.988-5.512,0.89-8.079-0.28c-1.806-0.819-3.095-2.33-3.875-4.151c-0.183-0.425-0.454-1.268-0.756-2.275  c0.354,0.157,0.742,0.249,1.153,0.249c1.568,0,2.84-1.271,2.84-2.84s-1.271-2.84-2.84-2.84c-0.162,0-0.317,0.021-0.472,0.048  c0.312-0.487,0.499-1.063,0.499-1.685c0-1.727-1.398-3.125-3.125-3.125c-1.726,0-3.125,1.398-3.125,3.125  c0,0.622,0.187,1.199,0.5,1.686c-0.159-0.027-0.32-0.049-0.487-0.049c-1.569,0-2.84,1.271-2.84,2.84s1.271,2.84,2.84,2.84  c0.429,0,0.832-0.103,1.197-0.272c-0.308,1.027-0.589,1.884-0.783,2.299c-0.839,1.798-2.071,3.332-3.876,4.151  c-2.566,1.17-5.436,1.27-8.078,0.28c-2.643-0.989-4.421-2.928-5.235-5.626c-3.743-12.41,11.832-26.997,19.888-31.382  C58.057,57.138,73.632,71.725,69.889,84.135z M89.855,64.559c-0.989,2.643-2.929,4.42-5.627,5.235  c-12.41,3.741-26.996-11.832-31.381-19.89c4.385-8.056,18.971-23.631,31.381-19.888c2.698,0.814,4.638,2.593,5.627,5.236  c0.987,2.642,0.89,5.511-0.279,8.079c-0.821,1.804-2.331,3.095-4.152,3.875c-0.426,0.183-1.268,0.455-2.275,0.755  c0.158-0.354,0.25-0.743,0.25-1.155c0-1.569-1.271-2.84-2.84-2.84c-1.569,0-2.841,1.271-2.841,2.84c0,0.162,0.021,0.318,0.048,0.472  c-0.486-0.312-1.062-0.499-1.684-0.499c-1.727,0-3.126,1.399-3.126,3.126c0,1.726,1.399,3.126,3.126,3.126  c0.622,0,1.197-0.187,1.685-0.5c-0.027,0.158-0.049,0.318-0.049,0.484c0,1.568,1.271,2.84,2.841,2.84c1.568,0,2.84-1.271,2.84-2.84  c0-0.428-0.102-0.829-0.271-1.193c1.025,0.309,1.881,0.59,2.296,0.783c1.797,0.838,3.331,2.07,4.152,3.875  C90.745,59.047,90.844,61.916,89.855,64.559z"/></svg>