<svg xmlns="http://www.w3.org/2000/svg" xmlns:xlink="http://www.w3.org/1999/xlink" version="1.1" x="0px" y="0px" viewBox="-5.0 -10.0 110.0 135.0" enable-background="new 0 0 100 100" xml:space="preserve"><path d="M54.873,77.205c13.171-15.184,45.242-35.22,38.072-58.676C90.99,12.123,86.506,7.562,80.232,5.212  C73.959,2.864,67.146,3.1,61.049,5.876c-4.604,2.095-8.113,5.858-9.887,10.593c-0.652,1.746-1.039,3.548-1.165,5.355  c-0.125-1.808-0.511-3.61-1.165-5.355c-1.771-4.735-5.283-8.498-9.885-10.593C32.85,3.1,26.038,2.864,19.763,5.212  c-6.274,2.35-10.756,6.911-12.714,13.317C-0.093,41.895,31.891,61.809,45.05,77.005c0.026,0.093,0.061,0.184,0.106,0.272  c0.899,1.761,1.056,3.768,0.446,5.647c-0.61,1.882-1.917,3.411-3.678,4.31c-1.339,0.682-2.863,0.804-4.291,0.338  c-1.429-0.463-2.591-1.455-3.273-2.795c-0.51-0.998-0.6-2.137-0.253-3.203s1.336-1.688,2.336-2.196  c0.734-0.374,1.026-1.769,0.652-2.504c-0.375-0.733-1.52-1.022-2.254-0.649c-1.71,0.871-2.977,2.604-3.57,4.428  c-0.593,1.826-0.439,3.771,0.433,5.48c1.044,2.047,2.822,3.566,5.009,4.276c0.875,0.284,1.773,0.426,2.667,0.426  c1.341,0,2.671-0.317,3.898-0.942c0.455-0.232,0.879-0.504,1.289-0.793c-1.601,2.028-1.061,4.426-1.061,4.426  s2.522,0.066,4.202-1.981c0.134-0.164,0.274-0.314,0.413-0.469c0.067,0.508,0.107,1.036,0.107,1.583  c0,2.357,1.771,3.734,1.771,3.734s1.771-1.377,1.771-3.734c0-0.547,0.04-1.077,0.108-1.586c0.14,0.155,0.28,0.307,0.415,0.472  c1.68,2.048,4.203,1.981,4.203,1.981s0.537-2.395-1.059-4.422c0.407,0.288,0.831,0.559,1.283,0.789  c1.229,0.625,2.561,0.942,3.9,0.942c0.895,0,1.791-0.142,2.666-0.425c2.186-0.71,3.965-2.229,5.01-4.276  c0.871-1.709,1.026-3.653,0.432-5.479c-0.59-1.825-1.61-3.557-3.319-4.43c-0.733-0.373-2.129-0.082-2.504,0.65  c-0.373,0.734-0.08,2.13,0.651,2.504c1,0.508,1.988,1.13,2.336,2.196c0.347,1.065,0.258,2.205-0.254,3.204  c-0.679,1.339-1.843,2.332-3.271,2.794c-1.433,0.466-2.953,0.344-4.291-0.337c-1.763-0.9-3.069-2.43-3.681-4.311  c-0.609-1.879-0.451-3.886,0.447-5.646C54.856,77.255,54.861,77.229,54.873,77.205z M11.054,20.353  c1.594-5.291,5.078-9.082,10.252-11.019c5.174-1.937,10.791-1.742,15.818,0.547c3.534,1.608,6.229,4.495,7.588,8.13  c1.36,3.635,1.224,7.584-0.384,11.116c-1.11,2.439-3.765,4.05-6.273,4.992c-2.512,0.939-1,5.969,2.611,4.617  c3.612-1.351,6.069-4.278,7.667-7.786c0.962-2.114,1.514-4.343,1.664-6.594c0.15,2.251,0.703,4.479,1.665,6.594  c1.6,3.508,4.057,6.435,7.668,7.786c3.611,1.352,5.123-3.678,2.609-4.617c-2.508-0.942-5.162-2.553-6.271-4.992  c-1.609-3.532-1.746-7.48-0.385-11.116c1.361-3.636,4.055-6.521,7.588-8.13c5.027-2.289,10.646-2.483,15.818-0.547  c5.176,1.938,8.658,5.729,10.252,11.019c7.328,24.297-33.229,44.59-38.944,58.336C44.529,64.943,3.727,44.65,11.054,20.353z"/></svg>